<svg width="1439" height="544" viewBox="0 0 1439 544" fill="none" xmlns="http://www.w3.org/2000/svg">
<g clip-path="url(#clip0_212_16580)" filter="url(#filter0_f_212_16580)">
<path opacity="0.15" d="M1373.19 237.88C1406.7 274.97 1433.88 339.451 1383.8 384.973C1378.63 389.666 1330.18 432.248 1257.3 426.96C1168.54 420.52 1150.34 350.812 1052.38 332.716C946.298 313.119 884.037 379.425 832.231 359.056C770.971 334.97 763.451 205.071 874.331 149.396C1007.91 82.3255 1283.08 138.151 1373.19 237.88Z" fill="#EBC136"/>
<path opacity="0.15" d="M538.245 429.639C569.307 410.569 603.155 372.148 582.134 333.285C579.966 329.278 559.262 292.654 510.679 283.834C451.505 273.09 422.162 316.52 354.092 311.996C280.375 307.096 256.688 252.301 217.971 257.114C172.189 262.806 134.627 348.21 192.513 404.149C262.248 471.538 454.723 480.917 538.245 429.639Z" fill="#EBC136"/>
<path opacity="0.15" d="M720.575 321.89C705.187 300.799 689.464 260.221 702.947 222.859C704.337 219.007 717.519 183.857 743.877 178.297C775.983 171.526 789.013 216.799 825.481 216.823C864.973 216.849 880.817 163.774 901.122 171.155C925.131 179.883 940.044 267.57 905.944 319.508C864.865 382.075 761.953 378.602 720.575 321.89Z" fill="#EBC136"/>
<path opacity="0.15" d="M708.467 274.802C725.285 264.124 743.622 242.633 732.277 220.936C731.107 218.699 719.931 198.254 693.654 193.363C661.649 187.407 645.745 211.693 608.923 209.218C569.047 206.538 556.27 175.943 535.322 178.661C510.55 181.876 490.171 229.62 521.448 260.828C559.128 298.423 663.247 303.514 708.467 274.802Z" fill="#EBC136"/>
<path opacity="0.15" d="M1432.62 248.365C1450.76 232.046 1470.7 199.494 1458.95 167.192C1457.74 163.861 1446.14 133.43 1418.17 126.595C1384.09 118.269 1366.7 154.965 1327.42 151.946C1284.89 148.678 1271.75 103.066 1249.34 107.534C1222.83 112.818 1200.28 184.751 1233.15 230.934C1272.76 286.569 1383.86 292.244 1432.62 248.365Z" fill="#8047F8"/>
<path opacity="0.15" d="M1444.61 377.852C1458.71 388.804 1474.15 410.725 1464.84 432.622C1463.88 434.88 1454.7 455.511 1432.82 460.261C1406.16 466.047 1392.73 441.312 1362.03 443.533C1328.79 445.938 1318.35 476.841 1300.86 473.922C1280.17 470.471 1262.84 421.932 1288.71 390.552C1319.88 352.749 1406.69 348.404 1444.61 377.852Z" fill="#8047F8"/>
<path opacity="0.15" d="M245.937 136.891C258.507 158.616 270.932 200.056 258.695 237.491C257.433 241.351 245.5 276.558 223.055 281.502C195.717 287.524 185.675 241.405 154.792 240.442C121.347 239.4 106.765 292.665 89.7319 284.678C69.5904 275.234 58.883 186.175 88.8998 134.53C125.06 72.3152 212.139 78.4762 245.937 136.891Z" fill="#EBC136"/>
<path opacity="0.15" d="M887.507 432.947C861.621 413.727 836.462 375.18 862.926 336.528C865.654 332.543 891.434 296.123 938.6 287.62C996.048 277.262 1016.11 320.78 1080.84 316.683C1150.94 312.246 1182.66 257.712 1218.2 262.753C1260.23 268.713 1280.76 354.166 1216.71 409.631C1139.55 476.449 957.112 484.627 887.507 432.947Z" fill="#EBC136"/>
<path opacity="0.15" d="M813.922 399.538C835.564 380.513 858.249 343.904 840.967 310.187C839.185 306.71 822.248 274.989 786.43 269.962C742.805 263.84 723.654 304.687 673.868 304.695C619.953 304.704 599.92 256.808 571.979 263.46C538.939 271.327 515.942 350.444 560.931 397.321C615.129 453.792 755.728 450.695 813.922 399.538Z" fill="#8047F8"/>
<path opacity="0.15" d="M861.472 141.004C902.019 151.666 945.079 171.465 914.336 188.257C911.167 189.989 880.993 205.762 815.11 207.009C734.863 208.528 698.181 186.67 606.369 184.784C506.942 182.742 471.601 206.767 419.852 202.269C358.659 196.95 313.602 155.145 395 132.591C493.058 105.42 752.443 112.335 861.472 141.004Z" fill="#8047F8"/>
<path opacity="0.15" d="M194.139 382.866C213.225 360.714 233.35 318.381 218.454 279.978C216.918 276.018 202.31 239.899 170.98 234.685C132.82 228.335 115.761 275.475 72.1632 276.25C24.9491 277.089 7.74424 222.467 -16.7709 230.526C-45.7595 240.056 -66.4579 331.145 -27.3915 384.214C19.6708 448.144 142.816 442.431 194.139 382.866Z" fill="#8047F8"/>
</g>
<defs>
<filter id="filter0_f_212_16580" x="-161" y="-160" width="1760" height="864" filterUnits="userSpaceOnUse" color-interpolation-filters="sRGB">
<feFlood flood-opacity="0" result="BackgroundImageFix"/>
<feBlend mode="normal" in="SourceGraphic" in2="BackgroundImageFix" result="shape"/>
<feGaussianBlur stdDeviation="80" result="effect1_foregroundBlur_212_16580"/>
</filter>
<clipPath id="clip0_212_16580">
<rect width="1440" height="544" fill="white" transform="translate(-1)"/>
</clipPath>
</defs>
</svg>
